<svg width="13" height="18" viewBox="0 0 13 18" fill="none" xmlns="http://www.w3.org/2000/svg">
<path fill-rule="evenodd" clip-rule="evenodd" d="M4.92866 2.30131H8.07219C8.01424 1.48279 7.33268 0.825884 6.50043 0.825884C5.66816 0.825884 4.9866 1.48278 4.92866 2.30131ZM8.99501 2.35615C11.263 2.70386 13 4.66337 13 7.02859V15.5377C13 16.8431 11.9418 17.9013 10.6364 17.9013H2.36364C1.05824 17.9013 0 16.8431 0 15.5377V7.02858C0 4.66038 1.74142 2.69891 4.01359 2.35483C4.04522 1.04892 5.11376 0 6.42729 0H6.58129C7.89525 0 8.96407 1.04962 8.99501 2.35615Z" fill="white"/>
<path fill-rule="evenodd" clip-rule="evenodd" d="M3.57471 13.3506C3.39538 13.3506 3.25 13.2052 3.25 13.0259C3.25 12.8465 3.39538 12.7012 3.57471 12.7012H9.42592C9.60525 12.7012 9.75063 12.8465 9.75063 13.0259C9.75063 13.2052 9.60525 13.3506 9.42592 13.3506H9.10046V13.6749C9.10046 13.8544 8.95495 13.9999 8.77546 13.9999C8.59597 13.9999 8.45046 13.8544 8.45046 13.6749V13.3506H3.57471Z" fill="black" fill-opacity="0.35"/>
</svg>
